<svg width="32" height="32" viewBox="0 0 32 32" fill="none" xmlns="http://www.w3.org/2000/svg">
<rect width="32" height="32" rx="6" fill="url(#paint0_linear_1_5)"/>
<path d="M15.7216 10.8182V21H13.8622L9.43253 14.5916H9.35795V21H7.20526V10.8182H9.09446L13.4893 17.2216H13.5788V10.8182H15.7216ZM17.5002 21V10.8182H21.5172C22.2895 10.8182 22.9474 10.9657 23.4909 11.2607C24.0345 11.5523 24.4488 11.9583 24.7338 12.4787C25.0222 12.9957 25.1664 13.5923 25.1664 14.2685C25.1664 14.9446 25.0205 15.5412 24.7289 16.0582C24.4372 16.5753 24.0146 16.978 23.4611 17.2663C22.9109 17.5547 22.2447 17.6989 21.4625 17.6989H18.9022V15.9737H21.1145C21.5288 15.9737 21.8702 15.9025 22.1387 15.7599C22.4105 15.6141 22.6126 15.4136 22.7452 15.1584C22.8811 14.8999 22.949 14.6032 22.949 14.2685C22.949 13.9304 22.8811 13.6354 22.7452 13.3835C22.6126 13.1283 22.4105 12.9311 22.1387 12.7919C21.8669 12.6494 21.5222 12.5781 21.1046 12.5781H19.6529V21H17.5002Z" fill="white"/>
<defs>
<linearGradient id="paint0_linear_1_5" x1="0" y1="0" x2="33.6726" y2="30.1307" gradientUnits="userSpaceOnUse">
<stop stop-color="#2563EB"/>
<stop offset="1" stop-color="#9333EA"/>
</linearGradient>
</defs>
</svg>
