<svg width="159" height="30" viewBox="0 0 159 30" fill="none" xmlns="http://www.w3.org/2000/svg">
<path d="M158.797 8.73552L158.13 12.6625H148.194L148.862 8.73552H158.797ZM151.375 5.12271H156.794L154.497 18.9653C154.464 19.1747 154.471 19.3514 154.517 19.4954C154.563 19.6329 154.654 19.7376 154.792 19.8096C154.936 19.875 155.125 19.9078 155.361 19.9078C155.518 19.9078 155.711 19.8881 155.94 19.8489C156.169 19.803 156.343 19.7703 156.461 19.7507L156.618 23.5598C156.343 23.6384 155.973 23.7267 155.508 23.8249C155.05 23.9296 154.517 23.9983 153.908 24.0311C152.638 24.09 151.604 23.9558 150.806 23.6286C150.014 23.3013 149.464 22.7908 149.156 22.097C148.855 21.3967 148.803 20.523 148.999 19.4758L151.375 5.12271Z" fill="white"/>
<path d="M137.769 24.09C136.159 24.09 134.824 23.7824 133.763 23.1671C132.703 22.5454 131.957 21.6553 131.525 20.4968C131.093 19.3318 131.014 17.9377 131.289 16.3146C131.551 14.7569 132.091 13.3955 132.909 12.2305C133.734 11.0655 134.771 10.1591 136.021 9.51111C137.278 8.86316 138.685 8.53918 140.243 8.53918C141.382 8.53918 142.38 8.7159 143.237 9.06933C144.101 9.42275 144.805 9.93653 145.348 10.6107C145.891 11.2848 146.258 12.0996 146.447 13.0552C146.644 14.0042 146.644 15.0776 146.447 16.2753L146.251 17.5319H132.782L133.253 14.5474H141.735C141.8 14.1155 141.758 13.7359 141.607 13.4086C141.463 13.0748 141.231 12.8163 140.91 12.6331C140.596 12.4432 140.217 12.3483 139.772 12.3483C139.326 12.3483 138.908 12.4432 138.515 12.6331C138.129 12.8229 137.798 13.0879 137.523 13.4283C137.255 13.7686 137.075 14.1678 136.983 14.626L136.394 17.7676C136.316 18.2519 136.345 18.6839 136.483 19.0635C136.62 19.4431 136.859 19.7409 137.199 19.9569C137.54 20.1728 137.978 20.2808 138.515 20.2808C138.881 20.2808 139.228 20.2317 139.556 20.1336C139.889 20.0288 140.184 19.8783 140.439 19.682C140.701 19.4791 140.91 19.2336 141.067 18.9457H146.015C145.662 19.9928 145.102 20.9026 144.337 21.6749C143.577 22.4407 142.641 23.0363 141.529 23.4617C140.423 23.8805 139.169 24.09 137.769 24.09Z" fill="white"/>
<path d="M119.692 15.3328L118.279 23.8151H112.859L116.197 3.70901H121.42L120.124 11.6022H120.281C120.772 10.6401 121.459 9.89072 122.343 9.35403C123.227 8.8108 124.228 8.53919 125.347 8.53919C126.407 8.53919 127.291 8.78135 127.998 9.26568C128.705 9.75 129.205 10.4176 129.5 11.2684C129.794 12.1193 129.85 13.0945 129.667 14.194L128.057 23.8151H122.638L124.051 15.3328C124.169 14.5867 124.074 14.0009 123.767 13.5755C123.465 13.1501 122.971 12.9374 122.284 12.9374C121.839 12.9374 121.433 13.0356 121.067 13.2319C120.707 13.4217 120.406 13.6966 120.164 14.0566C119.928 14.41 119.771 14.8354 119.692 15.3328Z" fill="white"/>
<path d="M94.0737 29.4699L97.5491 8.73553H102.929L102.497 11.3666H102.615C102.89 10.8561 103.25 10.3881 103.695 9.96271C104.146 9.53074 104.677 9.18713 105.285 8.93188C105.9 8.67008 106.581 8.53918 107.327 8.53918C108.322 8.53918 109.222 8.80426 110.027 9.3344C110.832 9.86454 111.424 10.699 111.804 11.8378C112.184 12.9767 112.223 14.4558 111.922 16.2753C111.634 18.0163 111.12 19.4594 110.38 20.6048C109.647 21.7502 108.784 22.6043 107.789 23.1671C106.8 23.73 105.77 24.0114 104.696 24.0114C103.989 24.0114 103.377 23.8969 102.86 23.6678C102.343 23.4322 101.928 23.1148 101.614 22.7155C101.299 22.3098 101.083 21.8516 100.966 21.3411H100.848L99.5126 29.4699H94.0737ZM101.594 16.2753C101.476 17.0084 101.466 17.6432 101.564 18.1799C101.669 18.71 101.875 19.1224 102.183 19.4169C102.497 19.7049 102.903 19.8489 103.4 19.8489C103.898 19.8489 104.343 19.7081 104.735 19.4267C105.128 19.1387 105.462 18.7297 105.737 18.1995C106.012 17.6628 106.215 17.0214 106.346 16.2753C106.463 15.5292 106.473 14.8911 106.375 14.3609C106.277 13.8242 106.077 13.4152 105.776 13.1337C105.475 12.8458 105.076 12.7018 104.578 12.7018C104.081 12.7018 103.626 12.8458 103.214 13.1337C102.808 13.4152 102.464 13.8242 102.183 14.3609C101.908 14.8911 101.712 15.5292 101.594 16.2753Z" fill="white"/>
<path d="M85.0349 24.09C83.3987 24.09 82.0504 23.766 80.9901 23.1181C79.9364 22.4636 79.1968 21.5538 78.7714 20.3888C78.346 19.2173 78.2609 17.8592 78.5161 16.3146C78.7714 14.77 79.3048 13.4152 80.1164 12.2502C80.928 11.0786 81.9719 10.1689 83.2481 9.52093C84.5244 8.86643 85.9839 8.53918 87.6267 8.53918C89.2564 8.53918 90.5981 8.86643 91.6519 9.52093C92.7121 10.1689 93.455 11.0786 93.8804 12.2502C94.3124 13.4152 94.4007 14.77 94.1455 16.3146C93.8902 17.8592 93.3535 19.2173 92.5354 20.3888C91.7173 21.5538 90.6701 22.4636 89.3938 23.1181C88.1241 23.766 86.6711 24.09 85.0349 24.09ZM85.7025 20.0845C86.1737 20.0845 86.6024 19.9307 86.9886 19.6231C87.3813 19.3154 87.7151 18.8769 87.99 18.3075C88.2714 17.7381 88.4776 17.0607 88.6085 16.2753C88.7394 15.4834 88.759 14.806 88.6674 14.2431C88.5757 13.6737 88.3859 13.2352 88.0979 12.9276C87.81 12.62 87.4304 12.4662 86.9591 12.4662C86.4879 12.4662 86.0559 12.62 85.6632 12.9276C85.2705 13.2352 84.9367 13.6737 84.6618 14.2431C84.387 14.806 84.1841 15.4834 84.0532 16.2753C83.9223 17.0607 83.8994 17.7381 83.9844 18.3075C84.0761 18.8769 84.2659 19.3154 84.5539 19.6231C84.8484 19.9307 85.2313 20.0845 85.7025 20.0845Z" fill="white"/>
<path d="M66.7964 23.8151L69.3096 8.73553H74.5718L74.1006 11.6022H74.2576C74.7092 10.5419 75.2754 9.76636 75.956 9.27549C76.6367 8.78462 77.3796 8.53918 78.1846 8.53918C78.4202 8.53918 78.646 8.55882 78.862 8.59809C79.0845 8.63081 79.3038 8.67663 79.5198 8.73553L78.7344 13.3694C78.4791 13.2712 78.1617 13.2025 77.7821 13.1632C77.4025 13.1174 77.0654 13.0945 76.7709 13.0945C76.2473 13.0945 75.7564 13.2156 75.2983 13.4577C74.8467 13.6933 74.4605 14.0271 74.1398 14.4591C73.8257 14.8845 73.6162 15.3852 73.5115 15.9612L72.2156 23.8151H66.7964Z" fill="white"/>
<path d="M48.686 23.8151L52.024 3.70901H60.7026C62.1948 3.70901 63.4514 4.00354 64.4725 4.59258C65.4935 5.18163 66.2265 6.00956 66.6716 7.07639C67.1166 8.14322 67.2213 9.39003 66.9857 10.8168C66.7501 12.2698 66.2265 13.5232 65.4149 14.5769C64.6099 15.6241 63.5823 16.4324 62.3323 17.0018C61.0887 17.5647 59.6946 17.8461 58.15 17.8461H52.9664L53.6733 13.605H57.7573C58.4118 13.605 58.9878 13.4937 59.4852 13.2712C59.9826 13.0421 60.3851 12.7214 60.6927 12.3091C61.0004 11.8902 61.2 11.3928 61.2916 10.8168C61.3832 10.2409 61.3407 9.75 61.164 9.34422C60.9938 8.93189 60.6993 8.61773 60.2804 8.40174C59.8681 8.17922 59.3412 8.06795 58.6998 8.06795H56.7756L54.1445 23.8151H48.686Z" fill="white"/>
<path d="M48.8528 8.73552L48.1852 12.6625H38.25L38.9176 8.73552H48.8528ZM41.4308 5.12271H46.8501L44.5528 18.9653C44.5201 19.1747 44.5266 19.3514 44.5724 19.4954C44.6182 19.6329 44.7099 19.7376 44.8473 19.8096C44.9913 19.875 45.1811 19.9078 45.4167 19.9078C45.5738 19.9078 45.7669 19.8881 45.996 19.8489C46.225 19.803 46.3985 19.7703 46.5163 19.7507L46.6734 23.5598C46.3985 23.6384 46.0287 23.7267 45.564 23.8249C45.1058 23.9296 44.5724 23.9983 43.9637 24.0311C42.694 24.09 41.6599 23.9558 40.8614 23.6286C40.0695 23.3013 39.5197 22.7908 39.2121 22.097C38.911 21.3967 38.8587 20.523 39.055 19.4758L41.4308 5.12271Z" fill="#F7E65D"/>
<path d="M27.8244 24.09C26.2144 24.09 24.8792 23.7824 23.8189 23.1671C22.7586 22.5454 22.0125 21.6553 21.5805 20.4968C21.1486 19.3318 21.07 17.9377 21.3449 16.3146C21.6067 14.7569 22.1467 13.3955 22.9648 12.2305C23.7895 11.0655 24.8268 10.1591 26.0769 9.51111C27.3336 8.86316 28.7407 8.53918 30.2984 8.53918C31.4372 8.53918 32.4353 8.7159 33.2927 9.06933C34.1567 9.42275 34.8602 9.93653 35.4035 10.6107C35.9467 11.2848 36.3132 12.0996 36.503 13.0552C36.6994 14.0042 36.6994 15.0776 36.503 16.2753L36.3067 17.5319H22.8372L23.3084 14.5474H31.7907C31.8561 14.1155 31.8136 13.7359 31.663 13.4086C31.519 13.0748 31.2867 12.8163 30.966 12.6331C30.6518 12.4432 30.2722 12.3483 29.8272 12.3483C29.3821 12.3483 28.9632 12.4432 28.5705 12.6331C28.1844 12.8229 27.8539 13.0879 27.579 13.4283C27.3106 13.7686 27.1307 14.1678 27.039 14.626L26.45 17.7676C26.3714 18.2519 26.4009 18.6839 26.5383 19.0635C26.6758 19.4431 26.9147 19.7409 27.255 19.9569C27.5953 20.1728 28.0339 20.2808 28.5705 20.2808C28.9371 20.2808 29.2839 20.2317 29.6112 20.1336C29.945 20.0288 30.2395 19.8783 30.4948 19.682C30.7566 19.4791 30.966 19.2336 31.1231 18.9457H36.0711C35.7176 19.9928 35.158 20.9026 34.3923 21.6749C33.6331 22.4407 32.6971 23.0363 31.5845 23.4617C30.4784 23.8805 29.225 24.09 27.8244 24.09Z" fill="#F7E65D"/>
<path d="M20.5841 8.76606L18.0847 23.8151H13.5303L8.0335 13.2535H7.91571L6.1489 23.8151H0.691406L4.02872 3.71268H8.6617L14.0799 14.235H14.237L15.1435 8.76606H20.5841Z" fill="#F7E65D"/>
<path d="M18.9089 0.53006L19.218 3.55681L22.9749 3.03751L19.5494 5.58277L19.8751 8.77256L17.8724 6.80116L14.3494 8.77256L16.1955 5.58277L13.7889 4.06809L16.8453 3.8307L18.9089 0.53006Z" fill="#F7E65D"/>
</svg>
