<svg width="145" height="32" viewBox="0 0 145 32" fill="none" xmlns="http://www.w3.org/2000/svg">
<rect width="32" height="32" rx="6" fill="url(#paint0_linear_4_6)"/>
<path d="M15.7216 10.8182V21H13.8622L9.43253 14.5916H9.35795V21H7.20526V10.8182H9.09446L13.4893 17.2216H13.5788V10.8182H15.7216ZM17.5002 21V10.8182H21.5172C22.2895 10.8182 22.9474 10.9657 23.4909 11.2607C24.0345 11.5523 24.4488 11.9583 24.7338 12.4787C25.0222 12.9957 25.1664 13.5923 25.1664 14.2685C25.1664 14.9446 25.0205 15.5412 24.7289 16.0582C24.4372 16.5753 24.0146 16.978 23.4611 17.2663C22.9109 17.5547 22.2447 17.6989 21.4625 17.6989H18.9022V15.9737H21.1145C21.5288 15.9737 21.8702 15.9025 22.1387 15.7599C22.4105 15.6141 22.6126 15.4136 22.7452 15.1584C22.8811 14.8999 22.949 14.6032 22.949 14.2685C22.949 13.9304 22.8811 13.6354 22.7452 13.3835C22.6126 13.1283 22.4105 12.9311 22.1387 12.7919C21.8669 12.6494 21.5222 12.5781 21.1046 12.5781H19.6529V21H17.5002Z" fill="white"/>
<path d="M56.3215 9.40909V22.5H53.9309L48.2356 14.2607H48.1397V22.5H45.3719V9.40909H47.8009L53.4515 17.642H53.5665V9.40909H56.3215ZM62.9596 22.6918C61.9496 22.6918 61.0803 22.4872 60.3516 22.0781C59.6272 21.6648 59.0689 21.081 58.6769 20.3267C58.2848 19.5682 58.0888 18.6712 58.0888 17.6357C58.0888 16.6257 58.2848 15.7393 58.6769 14.9766C59.0689 14.2138 59.6208 13.6193 60.3324 13.1932C61.0483 12.767 61.8878 12.554 62.8509 12.554C63.4986 12.554 64.1016 12.6584 64.6598 12.8672C65.2223 13.0717 65.7124 13.3807 66.13 13.794C66.5519 14.2074 66.88 14.7273 67.1144 15.3537C67.3488 15.9759 67.466 16.7045 67.466 17.5398V18.2876H59.1755V16.6001H64.9027C64.9027 16.2081 64.8175 15.8608 64.6471 15.5582C64.4766 15.2557 64.2401 15.0192 63.9375 14.8487C63.6393 14.674 63.292 14.5866 62.8956 14.5866C62.4823 14.5866 62.1158 14.6825 61.7962 14.8743C61.4809 15.0618 61.2337 15.3153 61.0547 15.6349C60.8758 15.9503 60.7841 16.3018 60.7799 16.6896V18.294C60.7799 18.7798 60.8694 19.1996 61.0483 19.5533C61.2316 19.907 61.4894 20.1797 61.8218 20.3714C62.1542 20.5632 62.5483 20.6591 63.0043 20.6591C63.3069 20.6591 63.5839 20.6165 63.8353 20.5312C64.0867 20.446 64.3019 20.3182 64.4809 20.1477C64.6598 19.9773 64.7962 19.7685 64.89 19.5213L67.4084 19.6875C67.2806 20.2926 67.0185 20.821 66.6222 21.2727C66.2302 21.7202 65.7231 22.0696 65.1009 22.321C64.483 22.5682 63.7692 22.6918 62.9596 22.6918ZM74.3932 12.6818V14.7273H68.4806V12.6818H74.3932ZM69.8229 10.3295H72.5459V19.483C72.5459 19.7344 72.5843 19.9304 72.661 20.071C72.7377 20.2074 72.8442 20.3033 72.9806 20.3587C73.1212 20.4141 73.2832 20.4418 73.4664 20.4418C73.5942 20.4418 73.7221 20.4311 73.8499 20.4098C73.9778 20.3842 74.0758 20.3651 74.144 20.3523L74.5722 22.3786C74.4359 22.4212 74.2441 22.4702 73.9969 22.5256C73.7498 22.5852 73.4494 22.6214 73.0957 22.6342C72.4394 22.6598 71.8641 22.5724 71.3698 22.3722C70.8798 22.1719 70.4984 21.8608 70.2256 21.4389C69.9529 21.017 69.8187 20.4844 69.8229 19.8409V10.3295ZM76.3571 22.5V9.40909H81.5219C82.5148 9.40909 83.3607 9.59872 84.0595 9.97798C84.7584 10.353 85.2911 10.875 85.6575 11.544C86.0283 12.2088 86.2136 12.9759 86.2136 13.8452C86.2136 14.7145 86.0261 15.4815 85.6511 16.1463C85.2761 16.8111 84.7328 17.3288 84.0212 17.6996C83.3138 18.0703 82.4573 18.2557 81.4516 18.2557H78.1597V16.0376H81.0041C81.5368 16.0376 81.9757 15.946 82.3209 15.7628C82.6703 15.5753 82.9303 15.3175 83.1007 14.9893C83.2754 14.657 83.3628 14.2756 83.3628 13.8452C83.3628 13.4105 83.2754 13.0312 83.1007 12.7074C82.9303 12.3793 82.6703 12.1257 82.3209 11.9467C81.9715 11.7635 81.5283 11.6719 80.9913 11.6719H79.1249V22.5H76.3571ZM87.8883 22.5V12.6818H90.5282V14.3949H90.6305C90.8094 13.7855 91.1099 13.3253 91.5317 13.0142C91.9536 12.6989 92.4394 12.5412 92.9891 12.5412C93.1255 12.5412 93.2725 12.5497 93.4302 12.5668C93.5878 12.5838 93.7263 12.6072 93.8457 12.6371V15.0533C93.7178 15.0149 93.541 14.9808 93.3151 14.951C93.0893 14.9212 92.8826 14.9062 92.6951 14.9062C92.2945 14.9062 91.9366 14.9936 91.6212 15.1683C91.3102 15.3388 91.063 15.5774 90.8798 15.8842C90.7008 16.1911 90.6113 16.5447 90.6113 16.9453V22.5H87.8883ZM99.1606 22.6918C98.1677 22.6918 97.309 22.4808 96.5846 22.0589C95.8644 21.6328 95.3083 21.0405 94.9162 20.282C94.5242 19.5192 94.3282 18.6349 94.3282 17.6293C94.3282 16.6151 94.5242 15.7287 94.9162 14.9702C95.3083 14.2074 95.8644 13.6151 96.5846 13.1932C97.309 12.767 98.1677 12.554 99.1606 12.554C100.153 12.554 101.01 12.767 101.73 13.1932C102.455 13.6151 103.013 14.2074 103.405 14.9702C103.797 15.7287 103.993 16.6151 103.993 17.6293C103.993 18.6349 103.797 19.5192 103.405 20.282C103.013 21.0405 102.455 21.6328 101.73 22.0589C101.01 22.4808 100.153 22.6918 99.1606 22.6918ZM99.1733 20.5824C99.625 20.5824 100.002 20.4545 100.305 20.1989C100.607 19.9389 100.835 19.5852 100.989 19.1378C101.146 18.6903 101.225 18.1811 101.225 17.6101C101.225 17.0391 101.146 16.5298 100.989 16.0824C100.835 15.6349 100.607 15.2812 100.305 15.0213C100.002 14.7614 99.625 14.6314 99.1733 14.6314C98.7174 14.6314 98.3339 14.7614 98.0228 15.0213C97.716 15.2812 97.4837 15.6349 97.326 16.0824C97.1726 16.5298 97.0959 17.0391 97.0959 17.6101C97.0959 18.1811 97.1726 18.6903 97.326 19.1378C97.4837 19.5852 97.716 19.9389 98.0228 20.1989C98.3339 20.4545 98.7174 20.5824 99.1733 20.5824ZM105.692 26.1818V12.6818H108.376V14.331H108.498C108.617 14.0668 108.79 13.7983 109.015 13.5256C109.246 13.2486 109.544 13.0185 109.91 12.8352C110.281 12.6477 110.741 12.554 111.291 12.554C112.007 12.554 112.667 12.7415 113.273 13.1165C113.878 13.4872 114.361 14.0476 114.724 14.7976C115.086 15.5433 115.267 16.4787 115.267 17.6037C115.267 18.6989 115.09 19.6236 114.736 20.3778C114.387 21.1278 113.91 21.6967 113.304 22.0845C112.704 22.468 112.03 22.6598 111.285 22.6598C110.756 22.6598 110.307 22.5724 109.936 22.3977C109.569 22.223 109.269 22.0036 109.035 21.7393C108.8 21.4709 108.621 21.2003 108.498 20.9276H108.415V26.1818H105.692ZM108.357 17.5909C108.357 18.1747 108.438 18.6839 108.6 19.1186C108.762 19.5533 108.996 19.892 109.303 20.1349C109.61 20.3736 109.983 20.4929 110.422 20.4929C110.865 20.4929 111.24 20.3714 111.547 20.1286C111.853 19.8814 112.086 19.5405 112.243 19.1058C112.405 18.6669 112.486 18.1619 112.486 17.5909C112.486 17.0241 112.407 16.5256 112.25 16.0952C112.092 15.6648 111.86 15.3281 111.553 15.0852C111.246 14.8423 110.869 14.7209 110.422 14.7209C109.978 14.7209 109.603 14.8381 109.297 15.0724C108.994 15.3068 108.762 15.6392 108.6 16.0696C108.438 16.5 108.357 17.0071 108.357 17.5909ZM119.733 16.8239V22.5H117.01V9.40909H119.656V14.4141H119.772C119.993 13.8345 120.351 13.3807 120.845 13.0526C121.34 12.7202 121.96 12.554 122.705 12.554C123.387 12.554 123.982 12.7031 124.489 13.0014C125 13.2955 125.397 13.7195 125.678 14.2734C125.963 14.8232 126.104 15.4815 126.1 16.2486V22.5H123.377V16.7344C123.381 16.1293 123.228 15.6584 122.916 15.3217C122.61 14.9851 122.179 14.8168 121.625 14.8168C121.254 14.8168 120.926 14.8956 120.641 15.0533C120.36 15.2109 120.138 15.4411 119.976 15.7436C119.818 16.0419 119.737 16.402 119.733 16.8239ZM132.645 22.6918C131.635 22.6918 130.766 22.4872 130.037 22.0781C129.313 21.6648 128.754 21.081 128.362 20.3267C127.97 19.5682 127.774 18.6712 127.774 17.6357C127.774 16.6257 127.97 15.7393 128.362 14.9766C128.754 14.2138 129.306 13.6193 130.018 13.1932C130.734 12.767 131.573 12.554 132.536 12.554C133.184 12.554 133.787 12.6584 134.345 12.8672C134.908 13.0717 135.398 13.3807 135.815 13.794C136.237 14.2074 136.565 14.7273 136.8 15.3537C137.034 15.9759 137.151 16.7045 137.151 17.5398V18.2876H128.861V16.6001H134.588C134.588 16.2081 134.503 15.8608 134.333 15.5582C134.162 15.2557 133.926 15.0192 133.623 14.8487C133.325 14.674 132.977 14.5866 132.581 14.5866C132.168 14.5866 131.801 14.6825 131.482 14.8743C131.166 15.0618 130.919 15.3153 130.74 15.6349C130.561 15.9503 130.47 16.3018 130.465 16.6896V18.294C130.465 18.7798 130.555 19.1996 130.734 19.5533C130.917 19.907 131.175 20.1797 131.507 20.3714C131.84 20.5632 132.234 20.6591 132.69 20.6591C132.992 20.6591 133.269 20.6165 133.521 20.5312C133.772 20.446 133.987 20.3182 134.166 20.1477C134.345 19.9773 134.482 19.7685 134.575 19.5213L137.094 19.6875C136.966 20.2926 136.704 20.821 136.308 21.2727C135.916 21.7202 135.409 22.0696 134.786 22.321C134.168 22.5682 133.455 22.6918 132.645 22.6918ZM144.079 12.6818V14.7273H138.166V12.6818H144.079ZM139.508 10.3295H142.231V19.483C142.231 19.7344 142.27 19.9304 142.346 20.071C142.423 20.2074 142.53 20.3033 142.666 20.3587C142.807 20.4141 142.969 20.4418 143.152 20.4418C143.28 20.4418 143.408 20.4311 143.535 20.4098C143.663 20.3842 143.761 20.3651 143.829 20.3523L144.258 22.3786C144.121 22.4212 143.93 22.4702 143.682 22.5256C143.435 22.5852 143.135 22.6214 142.781 22.6342C142.125 22.6598 141.55 22.5724 141.055 22.3722C140.565 22.1719 140.184 21.8608 139.911 21.4389C139.638 21.017 139.504 20.4844 139.508 19.8409V10.3295Z" fill="url(#paint1_linear_4_6)"/>
<defs>
<linearGradient id="paint0_linear_4_6" x1="0" y1="0" x2="33.6726" y2="30.1307" gradientUnits="userSpaceOnUse">
<stop stop-color="#2563EB"/>
<stop offset="1" stop-color="#9333EA"/>
</linearGradient>
<linearGradient id="paint1_linear_4_6" x1="45.5" y1="9.5" x2="145" y2="22.5" gradientUnits="userSpaceOnUse">
<stop stop-color="#60A5FA"/>
<stop offset="1" stop-color="#A855F7"/>
</linearGradient>
</defs>
</svg>
