<svg width="33" height="32" viewBox="0 0 33 32" fill="none" xmlns="http://www.w3.org/2000/svg">
<rect x="0.381836" width="32" height="32" rx="6" fill="#121A39"/>
<path d="M16.8501 22.9303L18.8367 10.9642H24.0017C24.8898 10.9642 25.6377 11.1395 26.2453 11.4901C26.853 11.8406 27.2893 12.3334 27.5541 12.9683C27.819 13.6032 27.8813 14.3452 27.7411 15.1944C27.6009 16.0591 27.2893 16.8051 26.8062 17.4322C26.3271 18.0554 25.7156 18.5365 24.9716 18.8754C24.2315 19.2104 23.4018 19.3779 22.4826 19.3779H19.3976L19.8182 16.8538H22.2489C22.6384 16.8538 22.9812 16.7875 23.2772 16.6551C23.5732 16.5188 23.8128 16.3279 23.9959 16.0825C24.1789 15.8332 24.2977 15.5372 24.3523 15.1944C24.4068 14.8516 24.3815 14.5595 24.2763 14.318C24.175 14.0726 23.9998 13.8856 23.7505 13.7571C23.5051 13.6246 23.1915 13.5584 22.8098 13.5584H21.6646L20.0987 22.9303H16.8501Z" fill="white"/>
<path d="M16.7915 13.9723L15.3037 22.9303H12.5926L9.32062 16.6434H9.2505L8.1988 22.9303H4.9502L6.93675 10.9642H9.69456L12.9198 17.2277H13.0133L13.5529 13.9723H16.7915Z" fill="#F7E65D"/>
<path d="M15.7945 9.06973L15.9785 10.8714L18.2148 10.5623L16.1758 12.0774L16.3696 13.9761L15.1775 12.8026L13.0804 13.9761L14.1793 12.0774L12.7468 11.1758L14.5661 11.0345L15.7945 9.06973Z" fill="#F7E65D"/>
</svg>
